<svg width="38" height="34" viewBox="0 0 38 34" fill="none" xmlns="http://www.w3.org/2000/svg">
<path d="M18.428 33.2557L18.4281 33.2556L18.4218 33.2493L5.18962 19.9237L5.1732 19.9072L5.15531 19.8923C5.03874 19.7949 4.86158 19.6217 4.61756 19.3597C4.38828 19.1136 4.00894 18.6476 3.47163 17.9465C2.94734 17.2624 2.47902 16.5613 2.06631 15.8433C1.66433 15.1439 1.29929 14.2859 0.97494 13.2629C0.656508 12.2587 0.5 11.2914 0.5 10.3594C0.5 7.20722 1.36909 4.80813 3.04998 3.09497C4.73016 1.38252 7.07016 0.5 10.1362 0.5C10.9513 0.5 11.79 0.647393 12.6543 0.948141C13.5247 1.251 14.3329 1.65892 15.0803 2.17198C15.8555 2.70413 16.5174 3.20006 17.0679 3.65982C17.6192 4.12019 18.1428 4.60928 18.6389 5.12714L19 5.50403L19.3611 5.12714C19.8572 4.60928 20.3808 4.12019 20.9321 3.65982C21.4826 3.20006 22.1445 2.70413 22.9197 2.17198C23.6671 1.65892 24.4753 1.251 25.3457 0.948141C26.21 0.647393 27.0487 0.5 27.8638 0.5C30.9298 0.5 33.2698 1.38252 34.95 3.09497C36.6309 4.80813 37.5 7.20722 37.5 10.3594C37.5 13.4439 35.9709 16.6455 32.7862 19.971L19.5785 33.2489L19.5785 33.2489L19.572 33.2557C19.4117 33.4229 19.2311 33.5 19 33.5C18.7689 33.5 18.5883 33.4229 18.428 33.2557Z" fill="url(#paint0_linear_30_19)" stroke="url(#paint1_linear_30_19)"/>
<defs>
<linearGradient id="paint0_linear_30_19" x1="0" y1="17" x2="38" y2="17" gradientUnits="userSpaceOnUse">
<stop stop-color="#AC941D"/>
<stop offset="1" stop-color="#FF780B"/>
</linearGradient>
<linearGradient id="paint1_linear_30_19" x1="0" y1="17" x2="38" y2="17" gradientUnits="userSpaceOnUse">
<stop stop-color="#E7C104"/>
<stop offset="0.73" stop-color="#FF780B"/>
</linearGradient>
</defs>
</svg>
