<svg width="1451" height="332" viewBox="0 0 1451 332" fill="none" xmlns="http://www.w3.org/2000/svg">
<path fill-rule="evenodd" clip-rule="evenodd" d="M-19 184.444L7.95 172.148C34.9 159.852 90.025 135.259 143.925 147.556C199.05 159.852 252.95 209.037 308.075 190.593C361.975 172.148 417.1 86.0741 471 61.4815C524.9 36.8889 580.025 73.7778 633.925 86.0741C689.05 98.3704 742.95 86.0741 798.075 98.3704C851.975 110.667 907.1 147.556 961 184.444C1014.9 221.333 1070.03 258.222 1123.93 258.222C1179.05 258.222 1232.95 221.333 1288.08 227.481C1341.98 233.63 1397.1 282.815 1424.05 307.407L1451 332V0H1424.05C1397.1 0 1341.98 0 1288.08 0C1232.95 0 1179.05 0 1123.93 0C1070.03 0 1014.9 0 961 0C907.1 0 851.975 0 798.075 0C742.95 0 689.05 0 633.925 0C580.025 0 524.9 0 471 0C417.1 0 361.975 0 308.075 0C252.95 0 199.05 0 143.925 0C90.025 0 34.9 0 7.95 0H-19V184.444Z" fill="#262525"/>
</svg>
